<svg width="34" height="31" viewBox="0 0 34 31" fill="none" xmlns="http://www.w3.org/2000/svg">
<path d="M1.7 0H32.3C32.7509 0 33.1833 0.181448 33.5021 0.504427C33.8209 0.827406 34 1.26546 34 1.72222V29.2778C34 29.7345 33.8209 30.1726 33.5021 30.4956C33.1833 30.8186 32.7509 31 32.3 31H1.7C1.24913 31 0.81673 30.8186 0.497918 30.4956C0.179107 30.1726 0 29.7345 0 29.2778V1.72222C0 1.26546 0.179107 0.827406 0.497918 0.504427C0.81673 0.181448 1.24913 0 1.7 0ZM11.05 18.9444V22.3889H15.3V25.8333H18.7V22.3889H20.4C21.5272 22.3889 22.6082 21.9353 23.4052 21.1278C24.2022 20.3204 24.65 19.2252 24.65 18.0833C24.65 16.9414 24.2022 15.8463 23.4052 15.0388C22.6082 14.2314 21.5272 13.7778 20.4 13.7778H13.6C13.3746 13.7778 13.1584 13.6871 12.999 13.5256C12.8396 13.3641 12.75 13.145 12.75 12.9167C12.75 12.6883 12.8396 12.4693 12.999 12.3078C13.1584 12.1463 13.3746 12.0556 13.6 12.0556H22.95V8.61111H18.7V5.16667H15.3V8.61111H13.6C12.4728 8.61111 11.3918 9.06473 10.5948 9.87218C9.79777 10.6796 9.35 11.7748 9.35 12.9167C9.35 14.0586 9.79777 15.1537 10.5948 15.9612C11.3918 16.7686 12.4728 17.2222 13.6 17.2222H20.4C20.6254 17.2222 20.8416 17.3129 21.001 17.4744C21.1604 17.6359 21.25 17.855 21.25 18.0833C21.25 18.3117 21.1604 18.5307 21.001 18.6922C20.8416 18.8537 20.6254 18.9444 20.4 18.9444H11.05Z" fill="#754BFF"/>
</svg>
